<svg width="600" height="400" viewBox="0 0 600 400" fill="none" xmlns="http://www.w3.org/2000/svg">
  <defs>
    <linearGradient id="bg" x1="0%" y1="0%" x2="100%" y2="100%">
      <stop offset="0%" style="stop-color:#1e40af;stop-opacity:1" />
      <stop offset="100%" style="stop-color:#3b82f6;stop-opacity:1" />
    </linearGradient>
    <linearGradient id="snowflake" x1="0%" y1="0%" x2="100%" y2="100%">
      <stop offset="0%" style="stop-color:#ffffff;stop-opacity:1" />
      <stop offset="100%" style="stop-color:#e0e7ff;stop-opacity:1" />
    </linearGradient>
  </defs>
  
  <!-- Background -->
  <rect width="600" height="400" fill="url(#bg)" rx="20"/>
  
  <!-- Snowflake Icon -->
  <g transform="translate(300, 200)">
    <!-- Center circle -->
    <circle cx="0" cy="0" r="8" fill="url(#snowflake)"/>
    
    <!-- Snowflake arms -->
    <g stroke="url(#snowflake)" stroke-width="3" stroke-linecap="round">
      <!-- Vertical -->
      <line x1="0" y1="-60" x2="0" y2="60"/>
      <!-- Horizontal -->
      <line x1="-60" y1="0" x2="60" y2="0"/>
      <!-- Diagonal 1 -->
      <line x1="-42" y1="-42" x2="42" y2="42"/>
      <!-- Diagonal 2 -->
      <line x1="-42" y1="42" x2="42" y2="-42"/>
    </g>
    
    <!-- Small circles at ends -->
    <circle cx="0" cy="-60" r="4" fill="url(#snowflake)"/>
    <circle cx="0" cy="60" r="4" fill="url(#snowflake)"/>
    <circle cx="-60" cy="0" r="4" fill="url(#snowflake)"/>
    <circle cx="60" cy="0" r="4" fill="url(#snowflake)"/>
    <circle cx="-42" cy="-42" r="4" fill="url(#snowflake)"/>
    <circle cx="42" cy="42" r="4" fill="url(#snowflake)"/>
    <circle cx="-42" cy="42" r="4" fill="url(#snowflake)"/>
    <circle cx="42" cy="-42" r="4" fill="url(#snowflake)"/>
  </g>
  
  <!-- Floating elements -->
  <circle cx="100" cy="80" r="3" fill="rgba(255,255,255,0.3)"/>
  <circle cx="500" cy="120" r="2" fill="rgba(255,255,255,0.2)"/>
  <circle cx="80" cy="320" r="2" fill="rgba(255,255,255,0.25)"/>
  <circle cx="520" cy="350" r="3" fill="rgba(255,255,255,0.3)"/>
  
  <!-- Decorative lines -->
  <line x1="50" y1="50" x2="150" y2="50" stroke="rgba(255,255,255,0.1)" stroke-width="2"/>
  <line x1="450" y1="350" x2="550" y2="350" stroke="rgba(255,255,255,0.1)" stroke-width="2"/>
</svg>


